<svg width="100" height="29" viewBox="0 0 100 29" fill="none" xmlns="http://www.w3.org/2000/svg">
<path d="M0.650781 22.5838V11.4547H14.5461V10.8037H0.650781V0.650781H15.4246V0H0V23.2346H15.5547V22.5838H0.650977H0.650781ZM28.0834 6.5082L22.3236 14.0904L16.6938 6.5084H15.8477L21.933 14.5787L15.2617 23.2344H16.0428L22.3232 15.0664L28.6363 23.2344H29.4498L22.7463 14.5783L28.8641 6.50801H28.0832L28.0834 6.5082ZM31.4025 28.9619V18.5488H31.4676C31.8582 20.0674 32.6283 21.2877 33.7781 22.2098C34.9279 23.1316 36.3922 23.5928 38.1711 23.5928C39.3209 23.5928 40.3406 23.3596 41.2301 22.8932C42.1195 22.4268 42.8625 21.7922 43.4592 20.9895C44.0557 20.1867 44.5113 19.2539 44.826 18.1908C45.1404 17.1279 45.2979 16.0105 45.2979 14.8393C45.2979 13.5809 45.135 12.4201 44.8096 11.3572C44.4842 10.2941 44.0123 9.37207 43.3941 8.59121C42.7758 7.81016 42.0273 7.20254 41.1486 6.76895C40.2701 6.33496 39.2775 6.11797 38.1711 6.11797C37.325 6.11797 36.5387 6.24277 35.8119 6.49219C35.0852 6.7418 34.4398 7.09414 33.8758 7.54981C33.3084 8.00897 32.8146 8.55216 32.4113 9.16055C31.9992 9.77891 31.6846 10.4568 31.4676 11.1945H31.4025V6.5082H30.7518V28.9619H31.4025V28.9619ZM38.1711 22.9742C36.132 22.9742 34.4939 22.2746 33.2574 20.8754C32.0209 19.4762 31.4025 17.4639 31.4025 14.8389C31.4025 13.7541 31.5545 12.7236 31.8582 11.7475C32.1619 10.7713 32.6012 9.91426 33.176 9.17676C33.751 8.43906 34.4615 7.85332 35.3074 7.41953C36.1535 6.98555 37.1082 6.76855 38.1711 6.76855C39.2559 6.76855 40.2051 6.98555 41.0186 7.41953C41.832 7.85332 42.5047 8.44453 43.0361 9.19297C43.5676 9.94141 43.9689 10.7984 44.2402 11.7637C44.5113 12.7291 44.6469 13.7541 44.6469 14.8389C44.6469 15.8152 44.5223 16.7861 44.2727 17.7514C44.0232 18.7168 43.6381 19.5846 43.1174 20.3549C42.5969 21.1248 41.9299 21.7539 41.1162 22.2422C40.3025 22.7303 39.3209 22.9742 38.1711 22.9742V22.9742ZM48.8773 23.2346V13.765C48.8773 12.8539 49.0074 11.9643 49.268 11.0967C49.5281 10.2289 49.9295 9.46406 50.4719 8.80254C51.0143 8.14082 51.7029 7.62012 52.5383 7.24043C53.3734 6.86074 54.366 6.70352 55.5158 6.76855V6.11777C54.5178 6.09629 53.6447 6.20449 52.8963 6.44316C52.1477 6.68184 51.5023 7.00723 50.96 7.41953C50.4176 7.83164 49.9838 8.31426 49.6584 8.86758C49.3333 9.42002 49.0919 10.0177 48.9424 10.641H48.8773V6.5082H48.2266V23.2348H48.8773V23.2346ZM56.3293 15.0016H70.3221C70.3656 13.8518 70.2518 12.7455 69.9805 11.6824C69.7094 10.6193 69.2754 9.67559 68.6789 8.85137C68.0822 8.02695 67.3121 7.36523 66.3684 6.86621C65.4246 6.36719 64.302 6.11777 63.0004 6.11777C62.0674 6.11777 61.1563 6.31309 60.2668 6.70371C59.3773 7.09414 58.5963 7.66348 57.9238 8.41191C57.2514 9.16035 56.709 10.077 56.2969 11.1619C55.8848 12.2465 55.6785 13.483 55.6785 14.8715C55.6785 16.108 55.8195 17.2633 56.1016 18.3371C56.3836 19.4109 56.8174 20.3439 57.4031 21.1357C57.9891 21.9275 58.743 22.5404 59.6648 22.9742C60.5867 23.4082 61.6986 23.6143 63.0004 23.5926C64.9094 23.5926 66.5148 23.0555 67.8164 21.9818C69.1182 20.9078 69.8883 19.3947 70.127 17.4422H69.4762C69.1941 19.2863 68.4727 20.6693 67.3121 21.5912C66.1514 22.5133 64.6926 22.9742 62.9352 22.9742C61.742 22.9742 60.7332 22.7682 59.9088 22.3561C59.0846 21.9439 58.4119 21.3797 57.8912 20.6639C57.3707 19.9479 56.9855 19.1072 56.7361 18.1418C56.4865 17.1766 56.351 16.1297 56.3293 15.0016ZM69.6713 14.3508H56.3295C56.3943 13.1793 56.6113 12.1271 56.9801 11.1943C57.349 10.2613 57.8316 9.46406 58.4283 8.80254C59.0248 8.14082 59.7191 7.63652 60.5109 7.28926C61.3027 6.94219 62.1543 6.76855 63.0654 6.76855C64.1502 6.76855 65.1045 6.96934 65.9291 7.3707C66.7533 7.77207 67.4422 8.31992 67.9955 9.01406C68.5486 9.7082 68.9662 10.5164 69.2482 11.4383C69.5303 12.3604 69.6713 13.3313 69.6713 14.3508ZM83.827 11.4547H84.4777C84.4777 9.58887 83.9354 8.23301 82.8508 7.38691C81.7658 6.54082 80.2906 6.11777 78.425 6.11777C77.3836 6.11777 76.5051 6.24805 75.7891 6.5084C75.0732 6.76856 74.4875 7.10488 74.0318 7.51699C73.5764 7.9291 73.251 8.38477 73.0557 8.88379C72.8604 9.38281 72.7627 9.86016 72.7627 10.3156C72.7627 11.2268 72.9254 11.9535 73.251 12.4959C73.5764 13.0383 74.0861 13.4613 74.7803 13.765C75.2576 13.9818 75.7998 14.1771 76.4074 14.351C77.0148 14.5244 77.7199 14.7088 78.5227 14.9039C79.2385 15.0777 79.9436 15.2512 80.6379 15.4246C81.332 15.5982 81.9449 15.8314 82.4764 16.1242C83.008 16.4172 83.4418 16.7914 83.7781 17.2471C84.1143 17.7025 84.2824 18.2992 84.2824 19.0367C84.2824 19.7527 84.1145 20.3602 83.7781 20.859C83.4447 21.3554 83.0058 21.7721 82.4928 22.0795C81.9721 22.3939 81.3916 22.6217 80.7518 22.7627C80.1117 22.9037 79.4881 22.9742 78.8807 22.9742C76.9064 22.9742 75.3932 22.535 74.341 21.6564C73.2889 20.7777 72.7629 19.3947 72.7629 17.5072H72.1119C72.1119 19.6117 72.6814 21.152 73.8203 22.1283C74.9594 23.1045 76.6461 23.5926 78.8807 23.5926C79.5965 23.5926 80.3178 23.5111 81.0447 23.3484C81.7713 23.1857 82.4223 22.9201 82.9971 22.5512C83.567 22.1875 84.0457 21.6976 84.3963 21.1195C84.7543 20.5336 84.9334 19.8178 84.9334 18.9717C84.9334 18.1689 84.776 17.5182 84.4615 17.0191C84.1469 16.5203 83.7348 16.108 83.2248 15.7826C82.715 15.4572 82.1402 15.2023 81.5002 15.018C80.8566 14.8325 80.2111 14.6535 79.5639 14.4809C78.7674 14.2719 77.9701 14.0658 77.1721 13.8627C76.4889 13.6891 75.8543 13.483 75.2686 13.2443C74.7045 13.0057 74.2543 12.6641 73.918 12.2193C73.5816 11.7746 73.4137 11.14 73.4137 10.3156C73.4137 10.1639 73.457 9.89258 73.5438 9.50215C73.6305 9.11152 73.8367 8.71563 74.1621 8.31426C74.4875 7.91309 74.9863 7.55508 75.659 7.24043C76.3314 6.92598 77.2535 6.76855 78.425 6.76855C79.2277 6.76855 79.9598 6.85547 80.6215 7.02891C81.2832 7.20254 81.8527 7.4791 82.3299 7.85879C82.8072 8.23848 83.176 8.72109 83.4363 9.30684C83.6967 9.89277 83.827 10.6086 83.827 11.4547V11.4547ZM98.8936 11.4547H99.5443C99.5443 9.58887 99.0021 8.23301 97.9174 7.38691C96.8326 6.54082 95.3574 6.11777 93.4916 6.11777C92.4504 6.11777 91.5717 6.24805 90.8559 6.5084C90.1398 6.76856 89.5541 7.10488 89.0986 7.51699C88.643 7.9291 88.3176 8.38477 88.1223 8.88379C87.927 9.38281 87.8295 9.86016 87.8295 10.3156C87.8295 11.2268 87.9922 11.9535 88.3178 12.4959C88.643 13.0383 89.1529 13.4613 89.8471 13.765C90.3244 13.9818 90.8666 14.1771 91.474 14.351C92.0814 14.5244 92.7865 14.7088 93.5893 14.9039C94.3053 15.0777 95.0103 15.2512 95.7045 15.4246C96.3988 15.5982 97.0115 15.8314 97.5432 16.1242C98.0746 16.4172 98.5086 16.7914 98.8447 17.2471C99.1811 17.7025 99.3492 18.2992 99.3492 19.0367C99.3492 19.7527 99.1811 20.3602 98.8447 20.859C98.5113 21.3554 98.0725 21.7721 97.5596 22.0795C97.0387 22.3939 96.4584 22.6217 95.8184 22.7627C95.1785 22.9037 94.5547 22.9742 93.9473 22.9742C91.973 22.9742 90.46 22.535 89.4078 21.6564C88.3555 20.7777 87.8295 19.3947 87.8295 17.5072H87.1787C87.1787 19.6117 87.748 21.152 88.8871 22.1283C90.026 23.1045 91.7127 23.5926 93.9473 23.5926C94.6633 23.5926 95.3846 23.5111 96.1113 23.3484C96.8379 23.1857 97.4889 22.9201 98.0639 22.5512C98.6338 22.1875 99.1125 21.6976 99.4631 21.1195C99.8211 20.5336 100 19.8178 100 18.9717C100 18.1689 99.8428 17.5182 99.5281 17.0191C99.2137 16.5203 98.8016 16.108 98.2916 15.7826C97.7818 15.4572 97.2068 15.2023 96.567 15.018C95.9234 14.8325 95.2779 14.6535 94.6307 14.4809C93.8342 14.2719 93.0369 14.0658 92.2389 13.8627C91.5555 13.6891 90.9209 13.483 90.3352 13.2443C89.7711 13.0057 89.3209 12.6641 88.9848 12.2193C88.6484 11.7746 88.4803 11.14 88.4803 10.3156C88.4803 10.1639 88.5236 9.89258 88.6105 9.50215C88.6973 9.11152 88.9035 8.71563 89.2287 8.31426C89.5541 7.91309 90.0531 7.55508 90.7256 7.24043C91.3982 6.92598 92.3201 6.76855 93.4918 6.76855C94.2945 6.76855 95.0266 6.85547 95.6883 7.02891C96.35 7.20254 96.9193 7.4791 97.3967 7.85879C97.874 8.23848 98.2428 8.72109 98.5031 9.30684C98.7635 9.89277 98.8937 10.6086 98.8937 11.4547H98.8936Z" fill="#222222"/>
</svg>
