<svg width="120" height="51" viewBox="0 0 120 51" fill="none" xmlns="http://www.w3.org/2000/svg">
<g clip-path="url(#clip0_1_409)">
<path d="M71.7112 17.3249C69.0876 17.3249 67.1338 18.6042 67.1338 21.6834C67.1338 24.0032 68.4215 25.614 71.5696 25.614C74.2382 25.614 76.0509 24.0521 76.0509 21.587C76.0509 18.7937 74.429 17.3249 71.7112 17.3249V17.3249ZM66.4659 39.0665C65.8448 39.823 65.226 40.6275 65.226 41.5758C65.226 43.4692 67.657 44.039 70.9964 44.039C73.762 44.039 77.5298 43.8463 77.5298 41.2923C77.5298 39.7741 75.7172 39.6805 73.4268 39.5381L66.4659 39.0665V39.0665ZM80.5814 17.4678C81.4383 18.5572 82.3458 20.0735 82.3458 22.2518C82.3458 27.5088 78.1968 30.587 72.1893 30.587C70.6617 30.587 69.2789 30.398 68.4215 30.1615L66.847 32.6708L71.52 32.9548C79.7709 33.4771 84.6333 33.7145 84.6333 40.0111C84.6333 45.4589 79.8183 48.5357 71.52 48.5357C62.8888 48.5357 59.5982 46.357 59.5982 42.6158C59.5982 40.4845 60.5521 39.35 62.2213 37.7844C60.6473 37.1237 60.1232 35.9403 60.1232 34.6605C60.1232 33.6177 60.6473 32.6712 61.507 31.7704C62.3648 30.8719 63.3182 29.9711 64.4629 28.9292C62.1266 27.7923 60.3613 25.3295 60.3613 21.824C60.3613 16.3784 63.9862 12.6382 71.2809 12.6382C73.3321 12.6382 74.5725 12.8254 75.6693 13.1117H84.9694V17.1359L80.5814 17.4678V17.4678ZM93.3591 8.86123C90.6403 8.86123 89.0667 7.29699 89.0667 4.59635C89.0667 1.89942 90.6399 0.429688 93.3591 0.429688C96.1247 0.429688 97.6988 1.89942 97.6988 4.59635C97.6988 7.29699 96.1252 8.86123 93.3591 8.86123ZM87.2062 37.3235V33.5837L89.6391 33.2532C90.307 33.1577 90.4017 33.0162 90.4017 32.3044V18.3798C90.4017 17.8603 90.2592 17.527 89.7806 17.3864L87.2062 16.4855L87.7303 12.6503H97.6027V32.3044C97.6027 33.0632 97.6486 33.1577 98.3663 33.2536L100.798 33.5842V37.3235H87.2062V37.3235ZM119.656 35.4873C117.605 36.4813 114.601 37.3812 111.882 37.3812C106.207 37.3812 104.062 35.1102 104.062 29.7555V17.3482C104.062 17.0642 104.062 16.8747 103.679 16.8747H100.342V12.6582C104.539 12.1834 106.207 10.0996 106.732 4.93713H111.263V11.6643C111.263 11.9948 111.263 12.1378 111.645 12.1378H118.368V16.8738H111.263V28.1927C111.263 30.9869 111.931 32.0753 114.505 32.0753C115.842 32.0753 117.223 31.7448 118.367 31.3184L119.656 35.4869" fill="#2F2707"/>
<path d="M48.9979 23.0586L27.1935 1.4045C26.8949 1.10784 26.5403 0.872506 26.1501 0.711948C25.7599 0.551389 25.3417 0.46875 24.9193 0.46875C24.497 0.46875 24.0788 0.551389 23.6886 0.711948C23.2983 0.872506 22.9438 1.10784 22.6452 1.4045L18.1176 5.90171L23.8611 11.6056C24.5363 11.3776 25.2622 11.3419 25.9567 11.5026C26.6512 11.6633 27.2865 12.0139 27.7907 12.5148C28.2975 13.0189 28.6514 13.6544 28.8119 14.3487C28.9724 15.043 28.9329 15.7681 28.6982 16.4413L34.2327 21.9389C35.5719 21.4808 37.1174 21.7774 38.1866 22.8412C38.5421 23.194 38.8241 23.6129 39.0165 24.0741C39.2089 24.5352 39.3079 25.0294 39.3079 25.5286C39.3079 26.0277 39.2089 26.5219 39.0165 26.983C38.8241 27.4442 38.5421 27.8631 38.1866 28.2159C37.5612 28.8377 36.7381 29.2249 35.8576 29.3118C34.977 29.3987 34.0934 29.1798 33.357 28.6924C32.6207 28.205 32.0771 27.4792 31.819 26.6386C31.5608 25.798 31.6039 24.8945 31.941 24.0819L26.7791 18.9552L26.7786 32.4468C27.1528 32.6306 27.4946 32.8734 27.7907 33.1657C28.1461 33.5186 28.4281 33.9376 28.6205 34.3988C28.8128 34.86 28.9119 35.3543 28.9119 35.8535C28.9119 36.3527 28.8128 36.847 28.6205 37.3082C28.4281 37.7694 28.1461 38.1884 27.7907 38.5414C26.2954 40.0265 23.8719 40.0265 22.379 38.5414C21.9329 38.0987 21.6039 37.5534 21.4213 36.9541C21.2386 36.3547 21.2078 35.7198 21.3318 35.1057C21.4557 34.4917 21.7305 33.9176 22.1317 33.4345C22.5329 32.9514 23.0481 32.5742 23.6315 32.3365V18.7192C23.1622 18.5289 22.7362 18.2467 22.379 17.8896C21.2465 16.7662 20.9741 15.1159 21.5544 13.7346L15.8929 8.11074L0.94255 22.958C0.643803 23.2547 0.406823 23.6069 0.245142 23.9946C0.0834607 24.3823 0.000244141 24.7977 0.000244141 25.2173C0.000244141 25.6369 0.0834607 26.0524 0.245142 26.4401C0.406823 26.8277 0.643803 27.18 0.94255 27.4766L22.7469 49.1312C23.3501 49.7301 24.1681 50.0666 25.0211 50.0666C25.874 50.0666 26.692 49.7301 27.2952 49.1312L48.9979 27.5777C49.601 26.9783 49.9398 26.1655 49.9398 25.3181C49.9398 24.4707 49.601 23.658 48.9979 23.0586" fill="#DE4C36"/>
</g>
<defs>
<clipPath id="clip0_1_409">
<rect width="120" height="50.2941" fill="white"/>
</clipPath>
</defs>
</svg>
