<svg width="100" height="100" viewBox="0 0 100 100" fill="none" xmlns="http://www.w3.org/2000/svg">
<g clip-path="url(#clip0_1_352)">
<path d="M21.0242 91.9683L14.5768 19.6525L85.4233 19.6525L78.969 91.957L49.9567 100L21.0242 91.9683Z" fill="#E44D26"/>
<path d="M50 93.8521L73.4434 87.3527L78.959 25.5652H50L50 93.8521Z" fill="#F16529"/>
<path d="M50 52.386H38.2636L37.4531 43.3038H50V34.4344H49.9693H27.7601L27.9724 36.8139L30.1523 61.2552H50V52.386Z" fill="#EBEBEB"/>
<path d="M50 75.4205L49.9611 75.4309L40.0834 72.7637L39.4519 65.6901H34.6521H30.5486L31.7912 79.616L49.9591 84.6596L50 84.6483V75.4205Z" fill="#EBEBEB"/>
<path d="M21.1683 0L25.6756 0V4.45312L29.7986 4.45312V0L34.306 0V13.4852H29.7988V8.96953H25.6758V13.4852H21.1685V0L21.1683 0Z" fill="#120D0E"/>
<path d="M40.2331 4.47187H36.2651V0L48.7104 0V4.47187H44.7407V13.4852H40.2333V4.47187H40.2331Z" fill="#120D0E"/>
<path d="M50.6857 0L55.3855 0L58.2765 4.73828L61.1646 0L65.8661 0V13.4852H61.3775V6.80117L58.2765 11.5959H58.199L55.0958 6.80117V13.4852H50.6857V0V0Z" fill="#120D0E"/>
<path d="M68.1094 0L72.618 0V9.02773H78.9564V13.4852H68.1094V0Z" fill="#120D0E"/>
<path d="M49.9694 52.3861V61.2552H60.8908L59.8614 72.758L49.9694 75.4279V84.6552L68.1518 79.616L68.2852 78.1176L70.3694 54.7677L70.5858 52.3861H68.1957H49.9694Z" fill="white"/>
<path d="M49.9694 34.4344V39.943V43.2821V43.3038H71.3643H71.3928L71.5707 41.3102L71.9748 36.8139L72.1869 34.4344H49.9694Z" fill="white"/>
</g>
<defs>
<clipPath id="clip0_1_352">
<rect width="100" height="100" fill="white"/>
</clipPath>
</defs>
</svg>
