<svg width="100" height="21" viewBox="0 0 100 21" fill="none" xmlns="http://www.w3.org/2000/svg">
<path d="M18.738 20.9177C18.1731 20.9177 17.6171 20.698 17.2015 20.2816L4.34505 7.42396V18.7454C4.34505 19.9456 3.37256 20.9179 2.17253 20.9179C0.973278 20.9179 0 19.9454 0 18.7454V2.17874C0 1.29929 0.530132 0.507608 1.34175 0.171388C1.73861 0.00658493 2.17549 -0.0366206 2.59694 0.047253C3.0184 0.131127 3.40544 0.338299 3.70897 0.642487L16.5655 13.5002V2.17874C16.5655 0.978511 17.538 0.00621035 18.738 0.00621035C19.9382 0.00621035 20.9105 0.978706 20.9105 2.17874V18.7454C20.9102 19.3215 20.6812 19.8739 20.2739 20.2812C19.8665 20.6886 19.3141 20.9176 18.738 20.9179V20.9177ZM28.7984 0.0271263L28.2014 1.14134L23.5844 9.53217L22.9875 10.5917L23.5844 11.65L28.2016 19.7701L28.8254 20.8831H40.9105L41.5075 19.6614L44.9565 12.7091L46.5043 9.55895H43.0013L34.1758 9.58593C33.0279 9.57029 31.972 10.6104 31.972 11.7585C31.972 12.9063 33.0279 13.9474 34.1758 13.931L39.4984 13.904L38.1949 16.5379H31.3513L27.9561 10.5635L31.3783 4.37198H38.6578L40.355 7.85479H44.7278L41.9716 1.24983L41.3736 0.0271263H28.7986H28.7984ZM50.8075 0.00015058C49.669 0.0140294 48.6473 1.06217 48.6619 2.19965V7.86124H53.007V2.19965C53.0207 1.0436 51.9624 -0.0145102 50.8075 0.00015058ZM57.7717 20.9595C57.1957 20.9592 56.6434 20.7301 56.2362 20.3228C55.829 19.9154 55.6001 19.363 55.6 18.787V2.22037C55.6 1.02034 56.5725 0.0480423 57.7725 0.0480423C58.9727 0.0480423 59.945 1.02034 59.945 2.22057V13.5418L72.8019 0.683928C73.1055 0.379875 73.4926 0.172795 73.914 0.088928C74.3354 0.00506122 74.7723 0.0481831 75.1691 0.212829C75.5661 0.377409 75.9053 0.655967 76.1439 1.0133C76.3826 1.37062 76.5099 1.79068 76.5099 2.22037V18.787C76.5099 19.9868 75.5374 20.9593 74.3374 20.9593C73.1372 20.9593 72.1649 19.9868 72.1649 18.7868V7.46579L59.308 20.3235C59.1063 20.5253 58.8668 20.6854 58.6031 20.7945C58.3395 20.9037 58.0569 20.9598 57.7715 20.9595H57.7717ZM92.6027 10.4871L99.3609 3.7535C100.211 2.90708 100.213 1.53132 99.3662 0.680605C98.5198 -0.169328 97.145 -0.171087 96.2943 0.675327L89.5257 7.42064L82.757 0.675327C81.9062 -0.171869 80.5315 -0.169132 79.6852 0.680605C78.8378 1.53132 78.8404 2.90708 79.6895 3.7535L86.4477 10.4873L79.7095 17.2019C78.8588 18.0493 78.857 19.4241 79.7042 20.2738C79.9056 20.4769 80.1454 20.6381 80.4096 20.7479C80.6738 20.8577 80.9571 20.9139 81.2432 20.9134C81.7978 20.9134 82.3521 20.7023 82.7761 20.2791L89.5257 13.5539L96.2744 20.2791C96.4757 20.4805 96.7148 20.6402 96.978 20.7491C97.2412 20.8579 97.5233 20.9138 97.8081 20.9134C98.366 20.9134 98.9223 20.7005 99.347 20.2738C100.193 19.4241 100.192 18.0493 99.3418 17.2021L92.6027 10.4871ZM50.8075 20.8978C49.669 20.8841 48.6473 19.8359 48.6619 18.6985V9.60431H53.007V18.6985C53.0207 19.8533 51.9624 20.9116 50.8075 20.8978Z" fill="#009900"/>
</svg>
