<svg width="100" height="55" viewBox="0 0 100 55" fill="none" xmlns="http://www.w3.org/2000/svg">
<path d="M74.3451 35.6311C72.4599 36.2463 70.4329 36.4354 68.4637 36.7803C67.9277 36.8741 67.3621 36.7905 66.8211 36.8655C62.6206 37.4483 61.0335 39.1308 60.4401 43.6035C60.1245 45.9844 59.4979 48.2473 58.1315 50.2731C55.8228 53.6947 51.338 55.2475 47.4996 53.9107C43.3909 52.4798 40.9018 48.7348 41.2339 44.4828C41.5331 40.6519 44.5589 37.2674 48.8082 36.2838C50.7981 35.8233 52.8626 35.6432 54.904 35.4573C58.7147 35.1108 60.3979 33.44 61.0327 29.6931C61.3979 27.5372 61.0725 25.5032 60.5944 23.4695C59.8639 20.3613 57.601 18.9171 53.8013 18.6406C51.7278 18.4894 49.6184 18.1886 47.6344 17.5925C43.4577 16.3366 41.026 12.7108 41.2186 8.45717C41.3874 4.73249 44.4206 1.10586 48.0641 0.273037C52.3806 -0.71409 56.6775 1.01211 58.5135 4.85632C59.4768 6.87355 60.0057 9.15874 60.3831 11.3818C61.0585 15.3678 62.6421 16.9143 66.6176 17.3464C69.1891 17.6261 71.8091 17.9448 74.2611 18.712C77.9846 19.8773 80.2213 23.3473 80.2206 27.2036C80.2202 30.9759 77.9115 34.4674 74.3451 35.6311V35.6311Z" fill="#62DAFB"/>
<path d="M30.4974 36.2436C25.506 36.2444 21.4309 32.1705 21.4301 27.1798C21.4293 22.1887 25.5032 18.1132 30.4939 18.1124C35.485 18.1116 39.5601 22.1856 39.5609 27.1763C39.5617 32.1674 35.4878 36.2429 30.4974 36.2436ZM9.03535 54.376C4.04815 54.3635 -0.0124714 50.2756 2.87834e-05 45.2802C0.012529 40.2929 4.1001 36.2323 9.0955 36.2452C14.0827 36.2573 18.1433 40.3453 18.1308 45.3407C18.1183 50.3279 14.0307 54.3885 9.03535 54.376V54.376ZM91.0024 54.376C86.0023 54.4046 81.8972 50.3603 81.8687 45.3786C81.8402 40.3789 85.8844 36.2733 90.8661 36.2452C95.8662 36.2163 99.9709 40.2601 99.9999 45.2423C100.028 50.242 95.9842 54.3475 91.0024 54.376Z" fill="#424242"/>
</svg>
