<svg width="100" height="89" viewBox="0 0 100 89" fill="none" xmlns="http://www.w3.org/2000/svg">
<path d="M82.2204 28.8372C81.156 28.4721 80.0826 28.1339 79.0012 27.8228C79.1806 27.0941 79.3464 26.3621 79.4987 25.6273C81.9354 13.7985 80.3422 4.2692 74.9013 1.13231C69.6848 -1.87623 61.1531 1.26065 52.5363 8.759C51.6873 9.49956 50.857 10.2615 50.0465 11.044C49.5036 10.5236 48.9512 10.0134 48.3895 9.51357C39.359 1.49521 30.3072 -1.88332 24.8721 1.26287C19.6605 4.27982 18.1168 13.2386 20.3106 24.4487C20.5289 25.5589 20.7753 26.6633 21.0497 27.7609C19.7689 28.1247 18.5319 28.5124 17.3485 28.9248C6.76149 32.6158 0 38.401 0 44.4013C0 50.5989 7.25805 56.8151 18.2859 60.584C19.1801 60.8882 20.0817 61.1701 20.9899 61.4293C20.6949 62.6118 20.4329 63.8023 20.2044 64.9995C18.1128 76.0149 19.7463 84.7612 24.9442 87.7596C30.313 90.8553 39.3236 87.6733 48.0979 80.0037C48.7914 79.3974 49.4875 78.7543 50.1845 78.0803C51.0625 78.9274 51.9639 79.7498 52.8877 80.5467C61.3867 87.8601 69.7804 90.8133 74.9739 87.807C80.3378 84.7019 82.0806 75.3059 79.8173 63.874C79.6447 63.0008 79.4433 62.1091 79.2176 61.2009C79.8505 61.0142 80.4714 60.8212 81.0773 60.6203C92.5415 56.8222 100 50.6817 100 44.4013C100 38.3793 93.0208 32.5552 82.2204 28.8372V28.8372Z" fill="#53C1DE"/>
<path d="M79.7326 56.5655C79.186 56.7466 78.6248 56.9214 78.053 57.0909C76.7873 53.0843 75.079 48.8238 72.9892 44.4225C74.9839 40.1252 76.6258 35.9196 77.8561 31.9387C78.8788 32.2352 79.872 32.5472 80.8288 32.8769C90.0827 36.0621 95.7272 40.7723 95.7272 44.4013C95.7272 48.2671 89.6309 53.2857 79.733 56.5655H79.7326ZM75.6256 64.7038C76.6262 69.7588 76.7692 74.3291 76.1062 77.9019C75.5105 81.1123 74.3129 83.2525 72.8321 84.1098C69.6806 85.934 62.9409 83.5628 55.6731 77.3085C54.8398 76.5915 54.0002 75.8259 53.1585 75.016C55.9763 71.934 58.7923 68.351 61.5406 64.3724C66.3751 63.9435 70.9424 63.2421 75.0843 62.2848C75.2879 63.108 75.4694 63.9147 75.6256 64.7038V64.7038ZM34.0911 83.7947C31.0122 84.882 28.56 84.913 27.0779 84.0584C23.9233 82.2395 22.6124 75.216 24.4008 65.7961C24.6135 64.6828 24.857 63.5757 25.131 62.476C29.2269 63.3819 33.761 64.0338 38.607 64.4268C41.3735 68.32 44.2709 71.8986 47.191 75.0324C46.5704 75.6327 45.9351 76.2176 45.2857 76.7867C41.4058 80.1785 37.5179 82.5843 34.0916 83.7947H34.0911ZM19.6667 56.5417C14.7906 54.875 10.7637 52.7091 8.00344 50.3458C5.52332 48.2215 4.27087 46.1127 4.27087 44.4013C4.27087 40.7603 9.69978 36.1156 18.7542 32.9588C19.8906 32.5643 21.0384 32.2032 22.196 31.8759C23.4475 35.9461 25.089 40.2018 27.0699 44.5053C25.0633 48.8729 23.3984 53.1963 22.1353 57.3144C21.3063 57.0771 20.4831 56.8194 19.6667 56.5417V56.5417ZM24.5022 23.6283C22.6226 14.0233 23.8706 6.77811 27.0115 4.96007C30.3572 3.02341 37.7547 5.785 45.5517 12.708C46.05 13.1506 46.5506 13.6139 47.052 14.0932C44.147 17.2129 41.2761 20.7644 38.5336 24.6351C33.8305 25.071 29.3283 25.7711 25.1894 26.7089C24.9345 25.6878 24.7053 24.6605 24.5022 23.6278V23.6283ZM67.6373 34.2794C66.6597 32.5908 65.6459 30.9234 64.5965 29.2785C67.7874 29.6812 70.8441 30.2167 73.7146 30.8721C72.8529 33.6342 71.7788 36.5223 70.514 39.4831C69.5898 37.7295 68.6308 35.9946 67.6373 34.2794V34.2794ZM50.0468 17.146C52.0171 19.2805 53.9905 21.6642 55.9316 24.2501C51.9941 24.064 48.0501 24.0631 44.1125 24.2474C46.0554 21.6854 48.0456 19.3053 50.0468 17.146V17.146ZM32.3435 34.3086C31.3625 36.0102 30.4213 37.7345 29.5208 39.48C28.2768 36.5294 27.2124 33.6284 26.3432 30.827C29.1964 30.1884 32.239 29.6666 35.4091 29.2705C34.3479 30.9256 33.3258 32.6055 32.3435 34.3086V34.3086ZM35.5003 59.837C32.2253 59.4714 29.1367 58.9762 26.2843 58.3553C27.1673 55.5043 28.2551 52.5409 29.5257 49.527C30.43 51.2738 31.3753 52.9991 32.3607 54.7015C33.3663 56.438 34.4131 58.1503 35.5003 59.837V59.837ZM50.165 71.9583C48.1403 69.7734 46.1209 67.357 44.1484 64.7578C46.0629 64.8331 48.015 64.8711 49.999 64.8711C52.0375 64.8711 54.0524 64.8255 56.0356 64.737C54.0883 67.3836 52.122 69.8035 50.165 71.9583ZM70.5547 49.3735C71.8912 52.4201 73.018 55.3675 73.9129 58.1703C71.0132 58.8319 67.883 59.3648 64.5845 59.7604C65.6415 58.0847 66.6651 56.3882 67.6546 54.6718C68.6605 52.9274 69.6274 51.1609 70.5547 49.3735V49.3735ZM63.9539 52.5378C62.4391 55.1692 60.8391 57.7507 59.1565 60.2782C56.1896 60.4902 53.1235 60.5995 49.999 60.5995C46.8874 60.5995 43.8602 60.5026 40.9451 60.3136C39.2189 57.792 37.5886 55.2061 36.0579 52.5612C34.5343 49.9304 33.1112 47.2427 31.7916 44.5039C33.1078 41.7643 34.5267 39.0752 36.0451 36.4422V36.4431C37.563 33.8096 39.1804 31.2347 40.8938 28.7239C43.8678 28.4991 46.917 28.3814 49.9995 28.3814C53.0956 28.3814 56.1489 28.5 59.122 28.7266C60.8181 31.2335 62.4251 33.7994 63.9402 36.4196C65.4638 39.0467 66.9015 41.7227 68.2512 44.4433C66.9154 47.1916 65.4822 49.8915 63.9543 52.5378H63.9539ZM72.7666 4.83305C76.115 6.76439 77.4175 14.5522 75.3136 24.7652C75.1757 25.4305 75.0258 26.0933 74.8639 26.7532C70.7153 25.7959 66.2101 25.0834 61.4932 24.6408C58.7454 20.7281 55.8984 17.1704 53.0403 14.091C53.7892 13.369 54.556 12.6657 55.3399 11.9818C62.7227 5.55664 69.6227 3.01987 72.7666 4.83305V4.83305Z" fill="white"/>
<path d="M50.0005 35.4718C54.9324 35.4718 58.9301 39.4699 58.9301 44.4014C58.9301 49.3334 54.9324 53.3315 50.0005 53.3315C45.069 53.3315 41.0709 49.3334 41.0709 44.4014C41.0709 39.4699 45.069 35.4718 50.0005 35.4718" fill="#53C1DE"/>
</svg>
