<svg width="100" height="61" viewBox="0 0 100 61" fill="none" xmlns="http://www.w3.org/2000/svg">
<path d="M53.6008 21.9651C53.6003 21.2393 53.7911 20.5262 54.154 19.8976C54.5169 19.2691 55.0391 18.7473 55.6679 18.3848C56.2967 18.0223 57.0099 17.832 57.7357 17.8329C58.4615 17.8339 59.1743 18.0261 59.8021 18.3903C63.5443 17.0165 67.712 16.2977 72.0454 16.2977C83.6496 16.2977 93.6027 21.4806 96.9671 28.9394C96.9384 30.7053 94.4298 31.5277 93.4289 30.4439C90.6701 24.453 81.9554 20.1403 72.0454 20.1403C68.4435 20.1403 64.9866 20.6901 61.8565 21.7404C61.8871 22.2919 61.8069 22.8439 61.6205 23.3639C61.4341 23.8838 61.1453 24.3611 60.7712 24.7675C60.3972 25.1739 59.9454 25.5011 59.4426 25.7299C58.9399 25.9586 58.3964 26.0842 57.8442 26.0993C57.2921 26.1143 56.7425 26.0185 56.2281 25.8174C55.7136 25.6163 55.2447 25.3141 54.8491 24.9287C54.4534 24.5433 54.1391 24.0824 53.9247 23.5734C53.7103 23.0643 53.6001 22.5175 53.6008 21.9651V21.9651ZM100 37.3354C100 36.6763 99.8432 36.0267 99.5413 35.4409C99.2395 34.855 98.8019 34.3498 98.265 33.9676C97.7281 33.5853 97.1076 33.3371 96.4552 33.2435C95.8028 33.15 95.1375 33.2139 94.5149 33.43C93.8923 33.646 93.3303 34.0078 92.8761 34.4853C92.4218 34.9628 92.0883 35.542 91.9036 36.1747C91.7188 36.8073 91.6881 37.475 91.814 38.1219C91.9399 38.7688 92.2187 39.3762 92.6273 39.8934C91.3076 41.9222 89.2565 43.7598 86.6283 45.2357C82.569 47.5116 77.3909 48.7659 72.0438 48.7659C67.4139 48.7659 62.9689 47.8494 59.1853 46.1122C56.6289 44.9376 54.5028 43.4554 52.9139 41.7485C51.8604 41.1349 49.4251 43.0921 50.3081 44.5838C55.0798 49.5468 63.1729 52.61 72.0438 52.61C78.038 52.61 83.8855 51.182 88.509 48.5874C91.8973 46.686 94.527 44.2236 96.1814 41.4537C97.2195 41.3742 98.1894 40.9059 98.8973 40.1425C99.6053 39.379 99.999 38.3765 100 37.3354V37.3354Z" fill="#89D96D"/>
<path d="M20.4119 45.0876C16.6443 40.2027 14.5102 33.3097 14.5102 25.8668C14.5102 19.0933 16.2968 12.7007 19.5402 7.86522C22.9397 2.79227 27.5393 0 32.4895 0C37.0014 0 41.303 2.3779 44.6037 6.69381C47.7195 10.7707 49.7468 16.3313 50.3094 22.3541C48.972 21.6151 47.5933 20.9537 46.1799 20.3731C44.5814 10.7993 38.9458 3.84256 32.4895 3.84256C28.8605 3.84256 25.3941 6.0308 22.7293 10.0056C19.9067 14.2148 18.3512 19.8487 18.3512 25.8684C18.3512 32.4857 20.3068 38.7683 23.6266 42.9599C24.5449 42.8685 25.4674 43.0872 26.247 43.5811C27.0266 44.0751 27.6183 44.8159 27.9277 45.6853C28.2372 46.5548 28.2466 47.5028 27.9545 48.3782C27.6624 49.2537 27.0855 50.0061 26.3159 50.5154C25.5464 51.0248 24.6284 51.2618 23.7084 51.1886C22.7884 51.1155 21.9194 50.7363 21.24 50.1117C20.5606 49.4871 20.1099 48.653 19.9599 47.7424C19.8098 46.8318 19.9689 45.8972 20.4119 45.0876V45.0876ZM49.8057 24.7177C43.0609 20.8225 35.5352 19.2766 29.3067 20.3635C28.649 19.7174 27.794 19.3099 26.8779 19.2059C25.9618 19.1018 25.0372 19.3073 24.2513 19.7895C23.4655 20.2717 22.8635 21.0029 22.5413 21.8668C22.219 22.7306 22.1951 23.6775 22.4732 24.5565C22.7513 25.4356 23.3154 26.1964 24.0759 26.7177C24.8364 27.2391 25.7494 27.491 26.6696 27.4335C27.5898 27.376 28.4643 27.0123 29.1539 26.4002C29.8435 25.7882 30.3085 24.9631 30.475 24.0563C35.7169 23.2817 42.0808 24.6938 47.8836 28.0455C54.9711 32.1367 59.9835 38.4878 60.9637 44.3768C62.1861 44.8868 63.5201 45.3235 64.964 45.6629C64.5879 38.0129 58.718 29.8608 49.8057 24.7177ZM50.8241 56.5611C47.1043 57.0344 42.884 56.4431 38.7339 54.8908C37.5417 55.812 36.2795 56.6758 34.9534 57.4743C39.3618 59.4984 43.9805 60.5614 48.2646 60.5614C49.3021 60.5614 50.3221 60.4993 51.3118 60.3734C56.4422 59.7215 60.5078 57.4074 62.8459 53.831C61.5226 53.5104 60.2189 53.1139 58.9412 52.6436C57.1418 54.7426 54.3224 56.1164 50.8241 56.5611V56.5611ZM46.7106 41.465C47.6335 41.455 48.5265 41.1364 49.2471 40.5597C49.9678 39.9831 50.4746 39.1818 50.6867 38.2836C50.8988 37.3854 50.804 36.442 50.4175 35.6039C50.0309 34.7658 49.3748 34.0814 48.5539 33.6596C47.733 33.2379 46.7944 33.1032 45.888 33.2771C44.9816 33.4509 44.1596 33.9233 43.5529 34.6189C42.9463 35.3144 42.5901 36.1931 42.541 37.1147C42.492 38.0364 42.753 38.9479 43.2825 39.7038C42.4967 41.594 41.3444 43.4858 39.875 45.2884C37.6023 48.0743 34.614 50.5797 31.2336 52.532C26.5145 55.259 21.432 56.7221 16.7574 56.7205C16.2698 56.7205 15.7853 56.7045 15.3071 56.6726C10.5322 56.3523 6.9048 54.4446 5.08951 51.3033C1.87329 45.7315 5.07995 37.3514 12.5579 31.1884C12.374 29.8171 12.2623 28.4371 12.2232 27.0541L12.0112 26.7593C7.14068 30.2608 3.39534 34.7807 1.4621 39.4823C-0.585883 44.4644 -0.479101 49.3445 1.76173 53.2237C4.23684 57.5094 8.95598 60.0976 15.0489 60.5072C15.6083 60.5439 16.1741 60.563 16.7447 60.563C22.0918 60.563 27.8532 58.9214 33.1541 55.8598C39.4734 52.2133 44.3248 47.0049 46.7106 41.465V41.465Z" fill="#999999"/>
</svg>
