<svg width="100" height="75" viewBox="0 0 100 75" fill="none" xmlns="http://www.w3.org/2000/svg">
<g clip-path="url(#clip0_1_398)">
<path d="M86.0546 43.0859C82.5585 43.1057 79.5312 43.9453 76.9921 45.1955C76.0546 43.34 75.1171 41.7187 74.9611 40.508C74.7853 39.1017 74.5705 38.2422 74.7853 36.5627C75 34.8828 75.9765 32.5 75.9765 32.3047C75.9568 32.1289 75.7615 31.2695 73.75 31.25C71.7384 31.2305 70 31.6406 69.8046 32.168C69.6093 32.6953 69.2187 33.9062 68.9648 35.1562C68.6132 36.9922 64.9414 43.4961 62.8515 46.914C62.1679 45.5859 61.582 44.4141 61.4646 43.4764C61.289 42.0703 61.074 41.2107 61.289 39.5312C61.5039 37.8514 62.4804 35.4687 62.4804 35.2734C62.4609 35.0976 62.2656 34.2383 60.2541 34.2187C58.2421 34.1992 56.5041 34.6094 56.3087 35.1367C56.1134 35.6641 55.8986 36.9141 55.4689 38.125C55.0585 39.3359 50.1757 50.1953 48.9062 53.0273C48.2617 54.4726 47.6955 55.625 47.2851 56.4062C46.875 57.1875 47.2656 56.4648 47.2265 56.543C46.875 57.207 46.6796 57.5781 46.6796 57.5781V57.5978C46.4062 58.0861 46.1132 58.5547 45.9763 58.5547C45.8787 58.5547 45.6833 57.2461 46.0154 55.4494C46.738 51.6797 48.4958 45.801 48.4765 45.5861C48.4765 45.4885 48.8083 44.4531 47.3435 43.926C45.9177 43.3986 45.4101 44.2775 45.2927 44.2775C45.1755 44.2775 45.0779 44.59 45.0779 44.59C45.0779 44.59 46.6599 37.9691 42.0505 37.9691C39.1599 37.9691 35.1755 41.1137 33.2029 43.9848C31.9529 44.6683 29.2966 46.1135 26.4841 47.6566C25.4099 48.2426 24.2966 48.8676 23.2419 49.434L23.0273 49.1992C17.4414 43.2422 7.10932 39.0234 7.53901 31.0156C7.69526 28.1055 8.71089 20.4297 27.383 11.1328C42.6759 3.51563 54.922 5.60547 57.0507 10.2539C60.0781 16.8945 50.5078 29.2383 34.6095 31.0156C28.5548 31.6992 25.371 29.3555 24.5705 28.4766C23.7306 27.5586 23.6134 27.5195 23.3009 27.6953C22.7931 27.9687 23.1056 28.7891 23.3009 29.2773C23.7697 30.5078 25.7228 32.6953 29.0431 33.7891C31.9531 34.7461 39.0626 35.2734 47.6564 31.9531C57.2853 28.2227 64.8048 17.8711 62.5978 9.21875C60.3517 0.41016 45.7423 -2.48047 31.9337 2.42188C23.7109 5.35156 14.8046 9.92188 8.39839 15.918C0.781197 23.0273 -0.429741 29.2383 0.0780717 31.8164C1.85561 41.0156 14.5312 47.0117 19.6093 51.4453C19.3554 51.5818 19.121 51.7185 18.9062 51.8359C16.3671 53.0857 6.69917 58.1445 4.27729 63.4959C1.54292 69.5506 4.70698 73.9062 6.81635 74.4922C13.3398 76.3086 20.0195 73.0469 23.6328 67.6758C27.2263 62.3047 26.7968 55.332 25.1367 52.1484L25.0779 52.0312L27.0701 50.8594C28.3593 50.0976 29.6289 49.3945 30.7419 48.7889C30.1171 50.4881 29.6677 52.4998 29.4335 55.4295C29.1601 58.8672 30.5664 63.3201 32.4218 65.0779C33.2421 65.8394 34.2187 65.8592 34.8242 65.8592C36.9726 65.8592 37.9492 64.0816 39.0234 61.9529C40.3515 59.3553 41.5234 56.3474 41.5234 56.3474C41.5234 56.3474 40.0585 64.492 44.0625 64.492C45.5273 64.492 46.9921 62.5974 47.6562 61.6209V61.6404C47.6562 61.6404 47.6953 61.5818 47.7734 61.4451C47.8553 61.3239 47.9335 61.2002 48.0078 61.0742V61.0351C48.5937 60.0195 49.9023 57.6953 51.8554 53.8476C54.3748 48.8867 56.7968 42.6758 56.7968 42.6758C56.7968 42.6758 57.0312 44.1992 57.7539 46.6992C58.1834 48.1838 59.1208 49.8047 59.8435 51.3867C59.2576 52.207 58.906 52.676 58.906 52.676L58.9255 52.6955C58.457 53.3205 57.9294 53.9848 57.3828 54.6486C55.3906 57.0314 53.0078 59.7465 52.6953 60.5277C52.3242 61.4455 52.4023 62.1291 53.125 62.6762C53.6523 63.0668 54.5898 63.1447 55.5859 63.0668C57.3828 62.9494 58.6328 62.5004 59.2578 62.2267C60.2343 61.8752 61.3476 61.3478 62.4218 60.5666C64.375 59.1215 65.5664 57.0707 65.4492 54.3363C65.3906 52.8324 64.9023 51.348 64.2968 49.9418C64.4726 49.6879 64.6486 49.4338 64.8242 49.1605C67.9101 44.6486 70.2929 39.6879 70.2929 39.6879C70.2929 39.6879 70.5273 41.2113 71.2499 43.7113C71.6208 44.9808 72.3632 46.3678 73.0273 47.7349C70.1367 50.0982 68.3203 52.8326 67.6953 54.6295C66.5429 57.9498 67.4414 59.4537 69.1406 59.8053C69.9021 59.9615 70.996 59.61 71.8162 59.2584C72.8318 58.9264 74.0623 58.3598 75.1953 57.5201C77.1484 56.0748 79.0234 54.0631 78.9257 51.3482C78.8671 50.0982 78.5351 48.8678 78.0859 47.6959C80.5468 46.6803 83.7302 46.0943 87.7734 46.5826C96.4648 47.5982 98.1835 53.0279 97.8517 55.2935C97.5197 57.5594 95.7033 58.8092 95.0976 59.1998C94.4921 59.5709 94.2968 59.7078 94.3554 59.981C94.4335 60.3914 94.707 60.3717 95.2343 60.2937C95.957 60.1764 99.8046 58.4383 99.9609 54.2588C100.195 48.8869 95.0976 43.0275 86.0546 43.0859V43.0859ZM19.0234 65.6836C16.1523 68.8281 12.1093 70.0195 10.3906 69.0039C8.5351 67.9297 9.25756 63.3008 12.7929 59.9609C14.9414 57.9297 17.7343 56.0547 19.5703 54.9023C19.9804 54.6484 20.6054 54.2775 21.3476 53.8281C21.4648 53.7502 21.5429 53.7109 21.5429 53.7109C21.6796 53.6328 21.8359 53.5351 21.9921 53.4375C23.3007 58.2031 22.0507 62.3828 19.0234 65.6836V65.6836ZM40.0195 51.4062C39.0234 53.8476 36.914 60.1172 35.6445 59.7656C34.5505 59.4726 33.8867 54.7265 35.4294 50.0391C36.2107 47.6756 37.8708 44.8633 38.8474 43.7693C40.4296 42.0115 42.1482 41.4256 42.5781 42.1482C43.0859 43.0859 40.6445 49.8828 40.0195 51.4062ZM57.3437 59.6875C56.914 59.9025 56.5234 60.0586 56.3476 59.9416C56.2109 59.8635 56.5232 59.5705 56.5232 59.5705C56.5232 59.5705 58.6912 57.2463 59.5505 56.1721C60.0388 55.5473 60.6248 54.8246 61.2498 54.0041V54.2385C61.25 57.0508 58.5546 58.9258 57.3437 59.6875ZM70.7029 56.6406C70.3904 56.4062 70.4296 55.6836 71.4841 53.418C71.8945 52.5195 72.8318 51.0156 74.4529 49.5898C74.6482 50.1758 74.7656 50.742 74.7459 51.2695C74.7265 54.7851 72.2265 56.0937 70.7029 56.6406Z" fill="#CF649A"/>
</g>
<defs>
<clipPath id="clip0_1_398">
<rect width="100" height="75" fill="white"/>
</clipPath>
</defs>
</svg>
